<svg width="110" height="32" viewBox="0 0 110 32" fill="none" xmlns="http://www.w3.org/2000/svg">
<rect x="0.5" y="0.5" width="109" height="31" rx="7.5" stroke="#2D2867"/>
<path d="M36.9896 20.3293H39.838L38.8182 17.6492C38.6779 17.2789 38.5399 16.87 38.4039 16.4221C38.2811 16.8183 38.1473 17.2229 38.0026 17.6362L36.9896 20.3293ZM40.3247 21.6017H36.5094L35.5755 24.1075H33.8981L37.6343 14.7494H39.2196L43.0414 24.1075H41.2786L40.3247 21.6017Z" fill="#2D2867"/>
<path d="M47.9896 22.4057C48.3207 21.9688 48.4863 21.3304 48.4863 20.4908C48.4863 19.7116 48.3492 19.1464 48.0752 18.7954C47.801 18.4446 47.436 18.2692 46.9799 18.2692C46.6642 18.2692 46.3726 18.3425 46.1051 18.4887C45.8376 18.6351 45.5832 18.831 45.342 19.0764V22.8094C45.5043 22.8868 45.6929 22.9482 45.9078 22.9932C46.1227 23.0387 46.3354 23.0613 46.5458 23.0613C47.1774 23.0613 47.6585 22.8427 47.9896 22.4057ZM43.7174 18.844C43.7174 18.3273 43.6998 17.7589 43.6648 17.139H45.1908C45.2477 17.4275 45.2872 17.7225 45.3092 18.0237C45.9406 17.3479 46.6642 17.0097 47.4799 17.0097C47.9535 17.0097 48.392 17.1271 48.7955 17.3617C49.1988 17.5964 49.5245 17.9666 49.7722 18.4725C50.0201 18.9785 50.144 19.6212 50.144 20.4004C50.144 21.2142 50.0025 21.9096 49.7196 22.4864C49.4367 23.0635 49.041 23.5003 48.5324 23.7976C48.0237 24.0945 47.436 24.2431 46.7696 24.2431C46.287 24.2431 45.8111 24.1634 45.342 24.0042V26.8845L43.7174 27.0201V18.844Z" fill="#2D2867"/>
<path d="M55.4022 22.4057C55.7334 21.9688 55.8989 21.3304 55.8989 20.4908C55.8989 19.7116 55.7618 19.1464 55.4878 18.7954C55.2136 18.4446 54.8486 18.2692 54.3925 18.2692C54.0768 18.2692 53.7852 18.3425 53.5177 18.4887C53.25 18.6351 52.9958 18.831 52.7546 19.0764V22.8094C52.9169 22.8868 53.1053 22.9482 53.3204 22.9932C53.5351 23.0387 53.7478 23.0613 53.9584 23.0613C54.5898 23.0613 55.0711 22.8427 55.4022 22.4057ZM51.1298 18.844C51.1298 18.3273 51.1122 17.7589 51.0772 17.139H52.6034C52.6603 17.4275 52.6999 17.7225 52.7218 18.0237C53.3533 17.3479 54.0768 17.0097 54.8925 17.0097C55.3662 17.0097 55.8044 17.1271 56.2081 17.3617C56.6114 17.5964 56.9371 17.9666 57.185 18.4725C57.4325 18.9785 57.5566 19.6212 57.5566 20.4004C57.5566 21.2142 57.4149 21.9096 57.1322 22.4864C56.8493 23.0635 56.4535 23.5003 55.945 23.7976C55.4361 24.0945 54.8486 24.2431 54.182 24.2431C53.6996 24.2431 53.2237 24.1634 52.7546 24.0042V26.8845L51.1298 27.0201V18.844Z" fill="#2D2867"/>
<path d="M60.5412 23.6651C59.8394 23.2842 59.3001 22.7383 58.9231 22.0279C58.5457 21.3175 58.3573 20.4779 58.3573 19.5092C58.3573 18.4587 58.5744 17.5662 59.0085 16.8321C59.4426 16.0982 60.0336 15.547 60.7811 15.1788C61.529 14.8107 62.3675 14.6267 63.2975 14.6267C63.8455 14.6267 64.3685 14.6859 64.8663 14.8042C65.3638 14.9227 65.8275 15.0852 66.2575 15.2919L65.8429 16.5189C64.979 16.1142 64.1547 15.9118 63.3698 15.9118C62.7075 15.9118 62.1276 16.0507 61.63 16.3285C61.1322 16.6062 60.745 17.0142 60.4689 17.5523C60.1925 18.0906 60.0545 18.7407 60.0545 19.5026C60.0545 20.1702 60.1608 20.7621 60.3733 21.2787C60.5862 21.7954 60.9217 22.2046 61.3799 22.5058C61.8382 22.8072 62.4159 22.9578 63.1132 22.9578C63.4289 22.9578 63.7446 22.9321 64.0604 22.8804C64.3761 22.8288 64.6722 22.7535 64.9484 22.6543V20.7621H62.7449V19.5221H66.5272V23.4617C65.9833 23.7113 65.4121 23.9032 64.8137 24.0365C64.2148 24.1698 63.6197 24.2366 63.0276 24.2366C62.0716 24.2366 61.2426 24.0463 60.5412 23.6651Z" fill="#2D2867"/>
<path d="M71.3274 22.8157C71.6649 22.6567 71.9412 22.4584 72.1561 22.2217V20.93C71.7131 20.8827 71.3513 20.859 71.0708 20.859C70.3998 20.859 69.9359 20.9654 69.6797 21.1787C69.4229 21.3916 69.2947 21.6792 69.2947 22.0407C69.2947 22.3855 69.3879 22.6404 69.5744 22.8062C69.7608 22.9719 70.0139 23.0547 70.334 23.0547C70.6584 23.0547 70.9895 22.9752 71.3274 22.8157ZM72.3009 24.1075C72.2437 23.8361 72.2063 23.5285 72.1889 23.184C71.9391 23.4769 71.6136 23.7254 71.212 23.93C70.8112 24.1344 70.3581 24.2366 69.8538 24.2366C69.446 24.2366 69.0744 24.1581 68.7387 24.0008C68.4036 23.8438 68.137 23.607 67.9397 23.2904C67.7424 22.9741 67.6436 22.5877 67.6436 22.1311C67.6436 21.4553 67.8913 20.916 68.3869 20.5133C68.8825 20.1108 69.7091 19.9096 70.8668 19.9096C71.3009 19.9096 71.7307 19.9398 72.1561 20V19.8644C72.1561 19.2487 72.0223 18.815 71.7548 18.5629C71.4873 18.3112 71.1036 18.1852 70.6039 18.1852C70.2573 18.1852 69.8868 18.2348 69.492 18.3337C69.0974 18.4329 68.7509 18.5512 68.4527 18.689L68.1961 17.5265C68.4856 17.3972 68.8671 17.2789 69.3408 17.1712C69.8145 17.0637 70.3142 17.0097 70.8405 17.0097C71.4545 17.0097 71.9762 17.1012 72.406 17.2841C72.8358 17.4672 73.1713 17.7817 73.4125 18.2271C73.6537 18.6729 73.7743 19.2725 73.7743 20.0258V22.7963C73.7743 23.085 73.7916 23.5222 73.8268 24.1075H72.3009Z" fill="#2D2867"/>
<path d="M75.0208 22.4347V14.2004L76.6389 14.0712V22.1506C76.6389 22.4477 76.6904 22.6575 76.7934 22.7803C76.8964 22.9028 77.0598 22.9645 77.2836 22.9645C77.3844 22.9645 77.5269 22.9408 77.711 22.8934L77.9018 24.0365C77.7481 24.0968 77.5608 24.1452 77.3396 24.1817C77.118 24.2182 76.9086 24.2366 76.7113 24.2366C75.584 24.2366 75.0208 23.6361 75.0208 22.4347Z" fill="#2D2867"/>
<path d="M79.0662 22.4347V14.2004L80.6843 14.0712V22.1506C80.6843 22.4477 80.7358 22.6575 80.8388 22.7803C80.942 22.9028 81.1054 22.9645 81.329 22.9645C81.4298 22.9645 81.5723 22.9408 81.7566 22.8934L81.9474 24.0365C81.7938 24.0968 81.6062 24.1452 81.385 24.1817C81.1634 24.2182 80.9539 24.2366 80.7566 24.2366C79.6296 24.2366 79.0662 23.6361 79.0662 22.4347Z" fill="#2D2867"/>
<path d="M87.0179 19.8127C86.9853 19.2573 86.8441 18.8408 86.5899 18.5629C86.3356 18.2854 85.9945 18.1464 85.5708 18.1464C85.158 18.1464 84.8147 18.2865 84.5409 18.5662C84.2671 18.8462 84.0868 19.2617 84.0042 19.8127H87.0179ZM88.6019 20.8267H83.9586C84.0324 22.2863 84.7408 23.0161 86.0836 23.0161C86.416 23.0161 86.7572 22.9762 87.107 22.8967C87.4547 22.8168 87.7893 22.7104 88.1087 22.5768L88.465 23.6682C87.6698 24.0473 86.7789 24.2366 85.7881 24.2366C85.032 24.2366 84.3975 24.0968 83.8803 23.8169C83.361 23.5371 82.9721 23.1345 82.7113 22.6091C82.451 22.0841 82.3205 21.4511 82.3205 20.7104C82.3205 19.9398 82.4587 19.2767 82.7353 18.7212C83.0112 18.1658 83.3958 17.7418 83.889 17.449C84.3823 17.1562 84.9516 17.0097 85.5969 17.0097C86.2683 17.0097 86.8267 17.1637 87.2765 17.4716C87.7263 17.7793 88.0587 18.1896 88.276 18.7018C88.4933 19.2144 88.6019 19.7804 88.6019 20.4004V20.8267Z" fill="#2D2867"/>
<path d="M89.8317 18.8892C89.8317 18.5061 89.8122 17.9227 89.7774 17.139H91.2984C91.3245 17.3328 91.3484 17.5642 91.3745 17.8333C91.3984 18.1023 91.4136 18.3208 91.4223 18.4887C91.6113 18.1831 91.796 17.9258 91.9785 17.7171C92.161 17.5081 92.374 17.3382 92.6173 17.2067C92.8607 17.0754 93.1366 17.0097 93.4495 17.0097C93.6994 17.0097 93.9123 17.0357 94.0927 17.0873L93.8884 18.4694C93.732 18.4221 93.556 18.3983 93.3626 18.3983C92.9824 18.3983 92.6477 18.4942 92.3631 18.6858C92.0785 18.8772 91.7743 19.1927 91.4483 19.6318V24.1075H89.8317V18.8892Z" fill="#2D2867"/>
<path d="M95.0053 26.9587C94.7685 26.918 94.5729 26.8716 94.4208 26.8201L94.7163 25.6576C94.8249 25.6875 94.964 25.7167 95.1313 25.7446C95.2964 25.7728 95.4551 25.7867 95.605 25.7867C96.3242 25.7867 96.8631 25.3322 97.2216 24.4239L97.328 24.1656L94.7098 17.139H96.4524L97.7691 21.0656C97.9821 21.7374 98.1211 22.2519 98.182 22.6091C98.3058 22.1054 98.4492 21.6017 98.6165 21.0979L99.9528 17.139H101.589L98.9794 24.198C98.7339 24.8652 98.4666 25.4033 98.182 25.8125C97.8973 26.2214 97.5605 26.525 97.1738 26.7231C96.7848 26.921 96.3177 27.0201 95.7679 27.0201C95.4963 27.0201 95.2421 26.9999 95.0053 26.9587Z" fill="#2D2867"/>
<path d="M33.8909 5.841H36.7868L36.7053 6.52771H34.7396V7.85763H36.5932V8.50105H34.7396V9.97433H36.8105L36.7392 10.6676H33.8909V5.841Z" fill="#2D2867"/>
<path d="M38.783 8.2043L37.2553 5.841H38.2194L39.255 7.57774L40.3448 5.841H41.2818L39.7675 8.17422L41.4074 10.6676H40.4296L39.2584 8.76771L38.0666 10.6676H37.1297L38.783 8.2043Z" fill="#2D2867"/>
<path d="M44.1608 7.99588C44.3418 7.83502 44.4324 7.60761 44.4324 7.31427C44.4324 7.01646 44.34 6.80227 44.1558 6.67107C43.9713 6.53987 43.7001 6.47438 43.3427 6.47438H42.881V8.18766C43.0937 8.22094 43.2567 8.23758 43.3699 8.23758C43.716 8.23758 43.9798 8.15716 44.1608 7.99588ZM42.0321 5.841H43.3562C43.9785 5.841 44.455 5.96558 44.7855 6.21433C45.116 6.46329 45.2811 6.82318 45.2811 7.29422C45.2811 7.61422 45.207 7.8939 45.0588 8.13262C44.9104 8.37155 44.704 8.55502 44.4391 8.68259C44.1745 8.81059 43.8698 8.87438 43.5259 8.87438C43.3381 8.87438 43.123 8.85219 42.881 8.80761V10.6676H42.0321V5.841Z" fill="#2D2867"/>
<path d="M46.1198 5.841H46.9685V9.95427H49.0021L48.9308 10.6676H46.1198V5.841Z" fill="#2D2867"/>
<path d="M52.4923 9.83928C52.73 9.68269 52.9075 9.46723 53.0253 9.19267C53.1431 8.91832 53.202 8.6043 53.202 8.25101C53.202 7.90435 53.1498 7.59565 53.0457 7.32429C52.9414 7.05315 52.7752 6.83726 52.5466 6.67598C52.3181 6.51491 52.0239 6.43427 51.6638 6.43427C51.3199 6.43427 51.0278 6.51597 50.788 6.67939C50.5481 6.84259 50.3681 7.06168 50.2482 7.33603C50.1283 7.61059 50.0683 7.91331 50.0683 8.2444C50.0683 8.5932 50.1248 8.90552 50.238 9.18093C50.351 9.45656 50.5242 9.67437 50.7575 9.83437C50.9904 9.99437 51.279 10.0744 51.6232 10.0744C51.965 10.0744 52.2546 9.99587 52.4923 9.83928ZM50.2923 10.4311C49.9325 10.2288 49.6574 9.94488 49.4673 9.57923C49.2772 9.21379 49.1822 8.78883 49.1822 8.30435C49.1822 7.79555 49.2833 7.35054 49.486 6.96931C49.6885 6.5883 49.9805 6.2939 50.3618 6.0859C50.7432 5.87832 51.193 5.77422 51.7114 5.77422C52.207 5.77422 52.6338 5.87491 52.9914 6.07587C53.3488 6.27726 53.6218 6.55992 53.8095 6.92429C53.9974 7.28888 54.0913 7.71107 54.0913 8.19107C54.0913 8.70883 53.989 9.15896 53.7841 9.54104C53.5792 9.92312 53.2874 10.2177 52.9082 10.4242C52.529 10.631 52.0838 10.7343 51.5723 10.7343C51.0789 10.7343 50.6521 10.6333 50.2923 10.4311Z" fill="#2D2867"/>
<path d="M56.3696 8.1243C56.5753 8.1243 56.7576 8.08505 56.916 8.0059C57.0744 7.92718 57.1978 7.81603 57.2861 7.67267C57.3745 7.52931 57.4186 7.36313 57.4186 7.17433C57.4186 6.9322 57.3404 6.75491 57.1844 6.6427C57.0281 6.53049 56.8006 6.47438 56.5019 6.47438H55.8874V8.1243H56.3696ZM55.0387 5.841H56.5766C57.1379 5.841 57.5629 5.95107 57.8514 6.17102C58.14 6.39097 58.2843 6.70563 58.2843 7.11438C58.2843 7.36995 58.2321 7.59502 58.128 7.78937C58.024 7.98393 57.8949 8.14222 57.7411 8.26425C57.587 8.38649 57.4288 8.47758 57.2659 8.53774L58.7766 10.6676H57.7921L56.5121 8.75427H55.8874V10.6676H55.0387V5.841Z" fill="#2D2867"/>
<path d="M59.4489 5.841H62.3448L62.2634 6.52771H60.2976V7.85763H62.1512V8.50105H60.2976V9.97433H62.3685L62.2973 10.6676H59.4489V5.841Z" fill="#2D2867"/>
<path d="M65.4955 5.841H66.3442V10.6676H65.4955V5.841Z" fill="#2D2867"/>
<path d="M68.5883 6.53774H67.0638L67.1386 5.841H70.9649L70.8867 6.53774H69.437V10.6676H68.5883V6.53774Z" fill="#2D2867"/>
<path d="M76.8486 9.83928C77.0861 9.68269 77.2638 9.46723 77.3815 9.19267C77.4991 8.91832 77.558 8.6043 77.558 8.25101C77.558 7.90435 77.5058 7.59565 77.402 7.32429C77.2977 7.05315 77.1313 6.83726 76.9029 6.67598C76.6741 6.51491 76.3799 6.43427 76.0201 6.43427C75.6759 6.43427 75.3841 6.51597 75.1442 6.67939C74.9041 6.84259 74.7242 7.06168 74.6045 7.33603C74.4843 7.61059 74.4243 7.91331 74.4243 8.2444C74.4243 8.5932 74.4808 8.90552 74.5942 9.18093C74.7072 9.45656 74.8804 9.67437 75.1135 9.83437C75.3467 9.99437 75.6353 10.0744 75.9794 10.0744C76.321 10.0744 76.6109 9.99587 76.8486 9.83928ZM74.6486 10.4311C74.2885 10.2288 74.0136 9.94488 73.8235 9.57923C73.6334 9.21379 73.5382 8.78883 73.5382 8.30435C73.5382 7.79555 73.6395 7.35054 73.8422 6.96931C74.0445 6.5883 74.3366 6.2939 74.7181 6.0859C75.0994 5.87832 75.5492 5.77422 76.0676 5.77422C76.5633 5.77422 76.9898 5.87491 77.3477 6.07587C77.7051 6.27726 77.9778 6.55992 78.1657 6.92429C78.3535 7.28888 78.4476 7.71107 78.4476 8.19107C78.4476 8.70883 78.345 9.15896 78.1403 9.54104C77.9354 9.92312 77.6434 10.2177 77.2644 10.4242C76.8853 10.631 76.4398 10.7343 75.9284 10.7343C75.4349 10.7343 75.0084 10.6333 74.6486 10.4311Z" fill="#2D2867"/>
<path d="M79.3947 5.841H80.3692L82.8004 9.58094C82.7787 9.22553 82.77 8.89763 82.77 8.59769V5.841H83.5566V10.6676H82.6135L80.1452 6.86756C80.17 7.29892 80.1824 7.681 80.1824 8.01422V10.6676H79.3947V5.841Z" fill="#2D2867"/>
<path d="M17.1537 17.6205H17.9816L17.5663 16.6725L17.1537 17.6205Z" fill="#2D2867"/>
<path fill-rule="evenodd" clip-rule="evenodd" d="M22.9826 5.86679H13.9558C9.70351 5.86679 8.14819 7.39383 8.14819 11.5688V20.4316C8.14819 24.6065 9.70351 26.1335 13.9558 26.1335H22.9798C27.232 26.1335 28.7902 24.6065 28.7902 20.4316V11.5688C28.7902 7.39383 27.2348 5.86679 22.9826 5.86679ZM16.9499 18.0985L16.7044 18.6501H16.1453L17.3343 16.0019H17.8173L19.0015 18.6501H18.4274L18.185 18.0985H16.9499ZM25.9461 18.6483H26.4865V16.0019H25.9461V18.6483ZM23.7957 17.5111H24.7915V17.0289H23.7957V16.4864H25.2413V16.0035H23.2555V18.6499H25.2934V18.1672H23.7957V17.5111ZM21.6487 17.8239L21.0359 16.0018H20.5892L19.9765 17.8239L19.3802 16.003H18.7975L19.7381 18.6514H20.1914L20.805 16.9118L21.4184 18.6514H21.8757L22.814 16.003H22.2462L21.6487 17.8239ZM15.3205 17.5185C15.3205 17.9493 15.1026 18.1795 14.7069 18.1795C14.309 18.1795 14.09 17.9428 14.09 17.5001V16.0034H13.5425V17.5185C13.5425 18.2639 13.9642 18.6912 14.6995 18.6912C15.442 18.6912 15.8678 18.2557 15.8678 17.4966V16.0018H15.3205V17.5185ZM12.2359 16.0019H12.7833V18.6515H12.2359V17.5756H10.9994V18.6515H10.4518V16.0019H10.9994V17.0708H12.2359V16.0019ZM15.0333 9.25474C15.0333 11.1148 16.5747 12.6282 18.4692 12.6282C20.3637 12.6282 21.9051 11.1148 21.9051 9.25474H21.4197C21.4197 10.8521 20.0962 12.1516 18.4692 12.1516C16.8422 12.1516 15.5187 10.8521 15.5187 9.25474H15.0333Z" fill="#2D2867"/>
</svg>